<?xml version="1.0" encoding="utf-8"?>
<!-- Generator: Adobe Illustrator 16.0.0, SVG Export Plug-In . SVG Version: 6.00 Build 0)  -->
<!DOCTYPE svg PUBLIC "-//W3C//DTD SVG 1.1//EN" "http://www.w3.org/Graphics/SVG/1.1/DTD/svg11.dtd">
<svg version="1.1" id="Layer_1" xmlns="http://www.w3.org/2000/svg" xmlns:xlink="http://www.w3.org/1999/xlink" x="0px" y="0px"
	 width="576px" height="576px" viewBox="0 0 576 576" enable-background="new 0 0 576 576" xml:space="preserve">
<g>
	<g>
		<path d="M74.634,229.777c8.908,0,19.205-2.22,30.893-6.673v28.663c-2.6,0.923-6.312,1.939-11.133,3.057
			c1.483,4.273,2.229,8.257,2.229,11.974c0,11.865-3.575,22.213-10.719,31.031c-7.139,8.805-16.37,14.051-27.688,15.725
			c-7.42,1.103-11.132,5.096-11.132,11.959c0,2.415,1.207,4.831,3.617,7.244c3.151,3.518,7.791,5.754,13.918,6.674
			c26.529,4.079,39.792,15.117,39.792,33.125c0,28.746-17.161,43.14-51.485,43.14c-14.103,0-25.696-2.519-34.79-7.52
			C6.637,401.87,0.881,391.937,0.881,378.391c0-15.583,8.628-26.258,25.882-32v-0.562c-6.304-3.888-9.46-9.83-9.46-17.808
			c0-10.398,2.972-16.882,8.908-19.477v-0.562c-5.938-2.035-11.228-6.684-15.862-13.919c-5.196-7.785-7.791-16.137-7.791-25.041
			c0-13.361,4.729-24.489,14.189-33.396c9.093-8.347,19.944-12.521,32.56-12.521C58.401,223.102,66.843,225.324,74.634,229.777
			L74.634,229.777z M75.751,376.163c0-9.468-7.796-14.192-23.383-14.192c-15.029,0-22.54,4.914-22.54,14.754
			c0,9.64,8.162,14.46,24.484,14.46C68.602,391.185,75.751,386.183,75.751,376.163L75.751,376.163z M32.89,269.297
			c0,12.801,5.846,19.198,17.531,19.198c11.317,0,16.974-6.483,16.974-19.476c0-5.38-1.293-10.024-3.893-13.917
			c-3.152-4.263-7.51-6.397-13.081-6.397C38.737,248.705,32.89,255.568,32.89,269.297L32.89,269.297z"/>
		<path d="M135.037,202.778c-5.376,0-9.973-2.041-13.775-6.113c-3.803-4.088-5.704-8.909-5.704-14.48
			c0-5.746,1.9-10.661,5.704-14.75c3.803-4.079,8.399-6.123,13.775-6.123c5.19,0,9.701,2.043,13.495,6.123
			c3.807,4.087,5.704,9.002,5.704,14.75c0,5.571-1.896,10.391-5.704,14.48C144.737,200.739,140.226,202.778,135.037,202.778
			L135.037,202.778z"/>
		<path d="M119.729,348.052c0-3.708,0-10.01,0-18.919v-86.555c0-8.717,0-14.718,0-18.09h30.332c0,3.449,0,9.374,0,17.536v85.438
			c0,9.458,0,16.099,0,20.593h-30.332V348.052z"/>
		<path d="M208.21,224.487h24.209v26.442c-0.927,0-2.802,0-5.147,0c-2.517,0-4.867,0-7.097,0H208.21v51.766
			c0,12.436,4.083,18.65,12.244,18.65c5.747,0,10.946-1.577,15.577-4.733v27.817c-6.865,3.727-15.111,5.57-24.766,5.57
			c-13.538,0-22.911-4.819-28.103-14.469c-3.898-7.234-5.847-18.643-5.847-34.234v-49.811l0,0v-0.556h-3.898
			c-2.41,0-5.786,0-9.464,0v-26.442h13.637V213.64c0-5.2,0-9.334,0-12.525h30.617c0,3.349,0,7.516,0,11.964v11.408H208.21z"/>
		<path d="M305.959,223.649c-7.966,0-16.312,2.791-25.045,8.361v-48.708c0-10.576,0-20.877,0-20.877h-30.327c0,0,0,9.931,0,20.877
			V330.53c0,8.518,0,17.521,0,17.521h30.327v-6.899c0,0,0-7.476,0-10.624v-68.461c6.498-6.127,12.792-9.188,18.933-9.188
			c7.053,0,12.436,3.518,16.142,10.573c2.787,5.569,4.174,12.52,4.174,20.872l-0.149,37.577c0,6.313,0,26.153,0,26.153h31.038
			v-25.603v-38.128c0-16.138-3.612-29.871-10.848-41.183C332.037,230.147,320.629,223.649,305.959,223.649L305.959,223.649z"/>
		<path d="M404.488,349.165c-14.66,0-25.507-6.493-32.561-19.471c-5.562-10.59-8.348-24.395-8.348-41.468v-38.137
			c0-12.61,0-25.602,0-25.602h30.975v26.162l-0.088,37.577c0,10.573,1.209,18.176,3.623,22.816
			c2.785,5.762,7.899,8.634,15.305,8.634c5.201,0,11.047-3.063,17.521-9.194v-68.458c0-3.147,0-10.848,0-10.848v-6.688h30.631
			c0,0,0,8.999,0,17.536v85.162c0,10.941,0,20.869,0,20.869h-29.774v-10.01C423.217,345.455,414.139,349.165,404.488,349.165
			L404.488,349.165z"/>
		<path d="M529.741,348.889c-10.021,0-18.368-3.623-25.042-10.847v10.01h-28.663c0,0,0-9.004,0-17.521V183.303
			c0-10.947,0-20.877,0-20.877h30.337c0,0,0,10.301,0,20.877v48.428c8.527-5.381,16.877-8.082,25.042-8.082
			c14.64,0,26.161,6.498,34.51,19.49c7.055,11.312,10.562,25.045,10.562,41.183c0,16.518-3.708,30.893-11.123,43.138
			C556.464,341.749,544.581,348.889,529.741,348.889L529.741,348.889z M525.568,252.879c-6.114,0-12.522,3.062-19.195,9.188v48.138
			c5.933,5.76,11.779,8.631,17.521,8.631c7.235,0,12.7-3.992,16.428-11.97c2.966-6.303,4.438-13.817,4.438-22.545
			C544.762,263.36,538.354,252.879,525.568,252.879L525.568,252.879z"/>
	</g>
	<g>
		<path d="M140.854,374.736c-1.763-2.396-4.03-3.917-7.121-3.917c-2.971,0-5.803,2.283-5.803,5.362
			c0,8.005,18.848,4.658,18.848,20.621c0,9.515-5.924,16.266-15.634,16.266c-6.559,0-11.352-3.784-14.631-9.269l5.994-5.868
			c1.26,3.671,4.602,6.941,8.581,6.941c3.774,0,6.118-3.214,6.118-6.883c0-4.904-4.545-6.293-8.267-7.739
			c-6.119-2.527-10.596-5.617-10.596-12.995c0-7.89,5.866-14.25,13.871-14.25c4.23,0,10.092,2.071,12.991,5.285L140.854,374.736z"/>
		<path d="M172.883,413.068c-14.508,0-23.525-11.104-23.525-25.099c0-14.126,9.341-24.963,23.525-24.963
			c14.188,0,23.519,10.837,23.519,24.963C196.402,401.965,187.38,413.068,172.883,413.068z M172.883,372.151
			c-8.761,0-13.938,7.758-13.938,15.439c0,7.321,3.661,16.343,13.938,16.343c10.281,0,13.933-9.023,13.933-16.343
			C186.816,379.909,181.648,372.151,172.883,372.151z"/>
		<path d="M232.718,376.886c-2.591-3.165-6.497-5.057-10.468-5.057c-8.898,0-13.999,8.194-13.999,16.409
			c0,7.993,5.291,16.01,13.927,16.01c3.974,0,7.947-2.093,10.538-5.039v11.027c-3.47,1.646-6.94,2.834-10.781,2.834
			c-13.372,0-23.273-11.543-23.273-24.651c0-13.489,9.521-25.411,23.462-25.411c3.717,0,7.377,1.008,10.59,2.766v11.112H232.718z"/>
		<path d="M248.101,411.814h-9.279v-47.554h9.279V411.814z"/>
		<path d="M264.548,401.795l-3.904,10.02h-9.777l18.547-48.809h7.188l18.025,48.809h-9.896l-3.65-10.02H264.548z M272.562,376.934
			h-0.124l-5.235,17.292h11.285L272.562,376.934z"/>
		<path d="M306.747,403.744h13.103v8.07h-22.389v-47.554h9.286V403.744z"/>
		<path d="M372.821,376.886c-2.596-3.165-6.503-5.057-10.477-5.057c-8.899,0-13.994,8.194-13.994,16.409
			c0,7.993,5.297,16.01,13.928,16.01c3.976,0,7.948-2.093,10.544-5.039v11.027c-3.461,1.646-6.95,2.834-10.782,2.834
			c-13.375,0-23.282-11.543-23.282-24.651c0-13.489,9.528-25.411,23.455-25.411c3.727,0,7.386,1.008,10.609,2.766L372.821,376.886
			L372.821,376.886z"/>
		<path d="M400.182,413.068c-14.508,0-23.53-11.104-23.53-25.099c0-14.126,9.336-24.963,23.53-24.963
			c14.175,0,23.511,10.837,23.511,24.963C423.692,401.965,414.67,413.068,400.182,413.068z M400.182,372.151
			c-8.774,0-13.946,7.758-13.946,15.439c0,7.321,3.66,16.343,13.946,16.343c10.267,0,13.928-9.023,13.928-16.343
			C414.109,379.909,408.938,372.151,400.182,372.151z"/>
		<path d="M428.218,364.261h13.262c13.728,0,22.949,10.286,22.949,23.834c0,13.384-9.469,23.72-23.016,23.72h-13.195V364.261
			L428.218,364.261z M437.507,403.744h1.49c11.438,0,15.849-6.303,15.849-15.697c0-10.353-5.304-15.704-15.849-15.704h-1.49V403.744
			z"/>
		<path d="M478.224,411.814h-9.269v-47.554h9.269V411.814z"/>
		<path d="M484.963,363.007h6.692l25.023,33.225h0.132v-31.971h9.269v48.504h-6.673l-25.051-33.237h-0.105v32.287h-9.289v-48.808
			H484.963z"/>
		<path d="M574.833,386.526v1.197c0,13.433-6.874,25.345-21.629,25.345c-13.892,0-22.655-11.729-22.655-24.832
			c0-13.565,9.012-25.229,23.204-25.229c8.081,0,15.136,4.097,18.797,11.352l-8.187,4.41c-1.9-4.287-5.942-7.567-10.847-7.567
			c-8.955,0-13.376,9.136-13.376,17.037c0,7.871,4.47,16.636,13.444,16.636c5.798,0,10.646-5.047,10.817-10.78h-10.087v-7.567
			H574.833L574.833,386.526z"/>
	</g>
</g>
</svg>
